<svg width="19" height="16" viewBox="0 0 19 16" fill="none" xmlns="http://www.w3.org/2000/svg">
<path d="M9.025 5L11.6667 7.63333C11.6667 7.59167 11.6667 7.54167 11.6667 7.5C11.6667 6.83696 11.4033 6.20107 10.9344 5.73223C10.4656 5.26339 9.82971 5 9.16667 5C9.11667 5 9.075 5 9.025 5ZM5.44167 5.66667L6.73333 6.95833C6.69167 7.13333 6.66667 7.30833 6.66667 7.5C6.66667 8.16304 6.93006 8.79893 7.3989 9.26777C7.86774 9.73661 8.50363 10 9.16667 10C9.35 10 9.53333 9.975 9.70833 9.93333L11 11.225C10.4417 11.5 9.825 11.6667 9.16667 11.6667C8.0616 11.6667 7.00179 11.2277 6.22039 10.4463C5.43899 9.66488 5 8.60507 5 7.5C5 6.84167 5.16667 6.225 5.44167 5.66667ZM0.833333 1.05833L2.73333 2.95833L3.10833 3.33333C1.73333 4.41667 0.65 5.83333 0 7.5C1.44167 11.1583 5 13.75 9.16667 13.75C10.4583 13.75 11.6917 13.5 12.8167 13.05L13.175 13.4L15.6083 15.8333L16.6667 14.775L1.89167 0M9.16667 3.33333C10.2717 3.33333 11.3315 3.77232 12.1129 4.55372C12.8943 5.33512 13.3333 6.39493 13.3333 7.5C13.3333 8.03333 13.225 8.55 13.0333 9.01667L15.475 11.4583C16.725 10.4167 17.725 9.05 18.3333 7.5C16.8917 3.84167 13.3333 1.25 9.16667 1.25C8 1.25 6.88333 1.45833 5.83333 1.83333L7.64167 3.625C8.11667 3.44167 8.625 3.33333 9.16667 3.33333Z" fill="#9D9EA1"/>
</svg>
