<svg width="104" height="44" viewBox="0 0 104 44" fill="none" xmlns="http://www.w3.org/2000/svg">
<path d="M25.6548 11.3616L20.8168 12.2066L24.1899 16.0416L26.6151 15.6082L25.6548 11.3616ZM17.1974 12.8349L14.7723 13.2574L18.1577 17.0816L20.5705 16.6591L17.1974 12.8349ZM11.1652 13.8749L8.74006 14.3191L12.1255 18.1432L14.5384 17.7207L11.1652 13.8749ZM5.12075 14.9582L3.91431 15.1641C3.27463 15.2765 2.71181 15.6078 2.34943 16.0851C1.98706 16.5624 1.85474 17.1468 1.98154 17.7099L2.46166 19.8332L8.49385 18.7824L5.12075 14.9582ZM2.46166 19.8332V30.6666C2.46166 31.8691 3.56961 32.8332 4.92378 32.8332H24.6207C25.9872 32.8332 27.0829 31.8691 27.0829 30.6666V19.8332H2.46166Z" fill="white"/>
<path d="M40.7228 15.804C40.4241 15.868 40.1894 15.9853 40.0188 16.156C39.9761 16.1987 39.9334 16.2733 39.8908 16.38C39.8694 16.4653 39.8481 16.5293 39.8268 16.572C39.7841 16.636 39.7414 17.0093 39.6988 17.692C39.6774 18.3747 39.6561 19.1853 39.6348 20.124C39.6134 21.0627 39.6028 22.044 39.6028 23.068C39.6028 24.0707 39.6348 24.9453 39.6988 25.692C39.7628 26.3107 39.9228 26.9187 40.1788 27.516C40.4561 28.092 40.9041 28.4653 41.5228 28.636C41.9921 28.6787 42.4294 28.6147 42.8348 28.444C43.2614 28.252 43.5814 27.9427 43.7948 27.516C44.0294 27.0253 44.1254 26.5133 44.0828 25.98C44.0614 25.4253 44.1041 24.8813 44.2108 24.348C44.5094 24.3907 44.8401 24.4013 45.2028 24.38C45.5868 24.3587 45.9708 24.348 46.3548 24.348C46.7388 24.348 47.1121 24.3587 47.4748 24.38C47.8588 24.4013 48.2001 24.4547 48.4988 24.54C48.8614 25.6493 48.9574 26.7587 48.7868 27.868C48.6161 28.956 48.2428 29.9373 47.6668 30.812C47.0908 31.6867 46.3334 32.412 45.3948 32.988C44.4774 33.5427 43.4321 33.8307 42.2588 33.852C41.4908 33.9587 40.7014 33.9587 39.8908 33.852C39.0801 33.7667 38.3228 33.564 37.6188 33.244C36.9148 32.9027 36.3174 32.4333 35.8268 31.836C35.3574 31.2387 35.0801 30.492 34.9948 29.596C34.9521 28.828 34.9201 28.028 34.8988 27.196C34.8774 26.364 34.8561 25.436 34.8348 24.412C34.8348 23.3667 34.8348 22.1933 34.8348 20.892C34.8561 19.5693 34.8774 18.044 34.8988 16.316C34.8561 15.9533 34.8668 15.5907 34.9308 15.228C35.0161 14.844 35.1228 14.492 35.2508 14.172C35.4428 13.6173 35.6774 13.1053 35.9548 12.636C36.2534 12.1667 36.6054 11.7507 37.0108 11.388C37.2454 11.2173 37.5014 11.0787 37.7788 10.972C38.0561 10.844 38.3441 10.7373 38.6428 10.652C39.6241 10.332 40.5948 10.204 41.5548 10.268C42.5148 10.332 43.4108 10.556 44.2428 10.94C45.0961 11.3027 45.8641 11.7933 46.5468 12.412C47.2294 13.0307 47.7734 13.7453 48.1788 14.556C48.5841 15.3453 48.8294 16.2093 48.9148 17.148C49.0001 18.0867 48.8721 19.0467 48.5308 20.028C47.7414 20.1987 46.9628 20.2627 46.1948 20.22C45.4481 20.156 44.6694 20.0493 43.8588 19.9C43.7948 19.4947 43.7521 19.036 43.7308 18.524C43.7308 18.012 43.6774 17.5427 43.5708 17.116C43.4641 16.668 43.2614 16.3053 42.9628 16.028C42.6854 15.7507 42.2374 15.6227 41.6188 15.644C41.3414 15.6867 41.0428 15.74 40.7228 15.804ZM62.5238 10.876C62.9291 10.876 63.2918 10.8867 63.6118 10.908L64.4758 33.308C64.1131 33.372 63.7184 33.4147 63.2918 33.436C62.8864 33.4573 62.4811 33.468 62.0758 33.468C61.6918 33.468 61.3078 33.468 60.9238 33.468C60.5611 33.468 60.2518 33.4787 59.9958 33.5H59.9638C59.8571 32.796 59.7824 32.0707 59.7398 31.324C59.7184 30.556 59.6971 29.7987 59.6758 29.052C59.6758 28.3053 59.6651 27.5587 59.6438 26.812C59.6224 26.0653 59.5691 25.3507 59.4838 24.668L59.4518 24.636C58.8331 24.5293 58.2144 24.476 57.5958 24.476C56.9771 24.476 56.3584 24.5507 55.7398 24.7C55.6758 25.4467 55.6438 26.1827 55.6438 26.908C55.6651 27.6333 55.6864 28.3587 55.7078 29.084C55.7291 29.8093 55.7291 30.524 55.7078 31.228C55.7078 31.9107 55.6544 32.5933 55.5478 33.276C55.2918 33.4253 54.9504 33.5 54.5238 33.5C54.0971 33.5 53.6704 33.4787 53.2438 33.436C52.8171 33.3933 52.4118 33.3613 52.0278 33.34C51.6651 33.3187 51.3878 33.3613 51.1958 33.468C51.1531 32.8707 51.0998 32.06 51.0358 31.036C50.9931 29.9907 50.9504 28.828 50.9078 27.548C50.8651 26.2467 50.8224 24.8707 50.7798 23.42C50.7584 21.9693 50.7371 20.5187 50.7158 19.068C50.6944 17.596 50.6838 16.188 50.6838 14.844C50.7051 13.4787 50.7264 12.252 50.7478 11.164V11.132H50.7798H50.8438C51.1638 11.196 51.4944 11.2173 51.8358 11.196C52.1984 11.1747 52.5504 11.1533 52.8918 11.132C53.2544 11.1107 53.6064 11.1 53.9478 11.1C54.2891 11.1 54.6091 11.1427 54.9078 11.228C55.0998 12.7 55.1958 14.1293 55.1958 15.516C55.1958 16.9027 55.3238 18.2787 55.5798 19.644H55.6118C56.1451 19.772 56.7211 19.8147 57.3398 19.772C57.9584 19.708 58.5344 19.6547 59.0678 19.612H59.0998C59.2278 18.14 59.2918 16.764 59.2918 15.484C59.3131 14.204 59.2918 12.796 59.2278 11.26C59.4838 11.1747 59.7931 11.1 60.1558 11.036C60.5398 10.972 60.9344 10.9293 61.3398 10.908C61.7451 10.8653 62.1398 10.8547 62.5238 10.876ZM69.5645 11.004C70.0765 11.0253 70.8125 11.0253 71.7725 11.004H72.5405V11.132C72.5405 12.9667 72.5085 14.812 72.4445 16.668C72.4019 18.524 72.3592 20.3907 72.3165 22.268C72.2952 24.124 72.2952 25.98 72.3165 27.836C72.3379 29.692 72.4019 31.5267 72.5085 33.34C72.3379 33.5107 71.9752 33.6067 71.4205 33.628C70.8872 33.6707 70.3005 33.6813 69.6605 33.66C69.0419 33.6387 68.4445 33.6067 67.8685 33.564C67.2925 33.5427 66.8979 33.564 66.6845 33.628C66.8339 31.708 66.8979 29.7773 66.8765 27.836C66.8552 25.8947 66.8125 23.9747 66.7485 22.076C66.7059 20.156 66.6739 18.268 66.6525 16.412C66.6525 14.5347 66.7485 12.7 66.9405 10.908V10.844C67.0472 10.8227 67.2499 10.8333 67.5485 10.876C67.8685 10.8973 68.1032 10.908 68.2525 10.908C68.6365 10.9293 69.0739 10.9613 69.5645 11.004ZM88.341 30.012C88.341 30.2253 88.3517 30.4173 88.373 30.588C88.4157 31.356 88.437 31.9427 88.437 32.348C88.437 32.732 88.405 33.02 88.341 33.212C88.2984 33.3827 88.213 33.4787 88.085 33.5C87.957 33.5 87.7757 33.5 87.541 33.5C87.3064 33.4787 86.997 33.4787 86.613 33.5C86.2504 33.5213 85.621 33.5427 84.725 33.564C83.8504 33.5853 82.6344 33.596 81.077 33.596C79.541 33.596 77.4824 33.5747 74.901 33.532V32.956C74.965 31.356 75.0184 29.916 75.061 28.636C75.1037 27.3347 75.125 26.1293 75.125 25.02C75.1464 23.8893 75.157 22.8013 75.157 21.756C75.157 20.7107 75.1464 19.644 75.125 18.556C75.1037 17.468 75.0824 16.316 75.061 15.1C75.0397 13.8627 75.0184 12.4973 74.997 11.004C75.2104 10.9187 75.541 10.8547 75.989 10.812C76.437 10.748 76.917 10.716 77.429 10.716C77.941 10.716 78.4424 10.748 78.933 10.812C79.4237 10.876 79.8184 10.972 80.117 11.1C80.0744 12.4867 80.053 13.916 80.053 15.388C80.0744 16.8387 80.0957 18.3 80.117 19.772C80.1384 21.244 80.149 22.716 80.149 24.188C80.1704 25.6387 80.1704 27.0467 80.149 28.412V28.444C80.2984 28.4013 80.5757 28.3907 80.981 28.412C81.4077 28.412 81.8984 28.4227 82.453 28.444C83.0077 28.4653 83.5944 28.4973 84.213 28.54C84.853 28.5613 85.4504 28.5827 86.005 28.604C86.581 28.6253 87.0824 28.6467 87.509 28.668C87.957 28.668 88.2664 28.6573 88.437 28.636C88.437 28.8707 88.4264 29.1053 88.405 29.34C88.3837 29.5533 88.3624 29.7773 88.341 30.012ZM103.091 30.012C103.091 30.2253 103.102 30.4173 103.123 30.588C103.166 31.356 103.187 31.9427 103.187 32.348C103.187 32.732 103.155 33.02 103.091 33.212C103.048 33.3827 102.963 33.4787 102.835 33.5C102.707 33.5 102.526 33.5 102.291 33.5C102.056 33.4787 101.747 33.4787 101.363 33.5C101 33.5213 100.371 33.5427 99.475 33.564C98.6004 33.5853 97.3844 33.596 95.827 33.596C94.291 33.596 92.2324 33.5747 89.651 33.532V32.956C89.715 31.356 89.7684 29.916 89.811 28.636C89.8537 27.3347 89.875 26.1293 89.875 25.02C89.8964 23.8893 89.907 22.8013 89.907 21.756C89.907 20.7107 89.8964 19.644 89.875 18.556C89.8537 17.468 89.8324 16.316 89.811 15.1C89.7897 13.8627 89.7684 12.4973 89.747 11.004C89.9604 10.9187 90.291 10.8547 90.739 10.812C91.187 10.748 91.667 10.716 92.179 10.716C92.691 10.716 93.1924 10.748 93.683 10.812C94.1737 10.876 94.5684 10.972 94.867 11.1C94.8244 12.4867 94.803 13.916 94.803 15.388C94.8244 16.8387 94.8457 18.3 94.867 19.772C94.8884 21.244 94.899 22.716 94.899 24.188C94.9204 25.6387 94.9204 27.0467 94.899 28.412V28.444C95.0484 28.4013 95.3257 28.3907 95.731 28.412C96.1577 28.412 96.6484 28.4227 97.203 28.444C97.7577 28.4653 98.3444 28.4973 98.963 28.54C99.603 28.5613 100.2 28.5827 100.755 28.604C101.331 28.6253 101.832 28.6467 102.259 28.668C102.707 28.668 103.016 28.6573 103.187 28.636C103.187 28.8707 103.176 29.1053 103.155 29.34C103.134 29.5533 103.112 29.7773 103.091 30.012Z" fill="white"/>
</svg>
