<svg width="26" height="22" viewBox="0 0 26 22" fill="none" xmlns="http://www.w3.org/2000/svg">
<path d="M23.7203 0L18.8822 0.845L22.2553 4.68L24.6805 4.24667L23.7203 0ZM15.2629 1.47333L12.8377 1.89583L16.2231 5.72L18.636 5.2975L15.2629 1.47333ZM9.23068 2.51333L6.80549 2.9575L10.1909 6.78167L12.6038 6.35917L9.23068 2.51333ZM3.18617 3.59667L1.97974 3.8025C1.34006 3.91497 0.77724 4.24623 0.414863 4.72356C0.0524873 5.20088 -0.0798271 5.78524 0.0469723 6.34833L0.527086 8.47167L6.55928 7.42083L3.18617 3.59667ZM0.527086 8.47167V19.305C0.527086 20.5075 1.63504 21.4717 2.98921 21.4717H22.6862C24.0526 21.4717 25.1483 20.5075 25.1483 19.305V8.47167H0.527086Z" fill="white"/>
</svg>
