<svg width="55" height="55" viewBox="0 0 55 55" fill="none" xmlns="http://www.w3.org/2000/svg">
<path d="M22.9173 37.8122V17.1872L36.6673 27.4997M27.5007 4.58301C24.4912 4.58301 21.5112 5.17577 18.7308 6.32744C15.9504 7.47911 13.4241 9.16714 11.2961 11.2951C6.99841 15.5929 4.58398 21.4218 4.58398 27.4997C4.58398 33.5776 6.99841 39.4065 11.2961 43.7042C13.4241 45.8322 15.9504 47.5202 18.7308 48.6719C21.5112 49.8236 24.4912 50.4163 27.5007 50.4163C33.5785 50.4163 39.4075 48.0019 43.7052 43.7042C48.0029 39.4065 50.4173 33.5776 50.4173 27.4997C50.4173 24.4902 49.8246 21.5102 48.6729 18.7298C47.5212 15.9495 45.8332 13.4232 43.7052 11.2951C41.5772 9.16714 39.0509 7.47911 36.2705 6.32744C33.4901 5.17577 30.5101 4.58301 27.5007 4.58301Z" fill="white"/>
</svg>
